<svg width="44" height="42" viewBox="0 0 44 42" fill="none" xmlns="http://www.w3.org/2000/svg">
<path d="M7 1L7.38 2.88C7.65232 4.23001 8.26854 5.48686 9.16902 6.52889C10.0695 7.57092 11.2237 8.36284 12.52 8.828L13 9L12.52 9.172C11.2237 9.63716 10.0695 10.4291 9.16902 11.4711C8.26854 12.5131 7.65232 13.77 7.38 15.12L7 17L6.62 15.12C6.34768 13.77 5.73146 12.5131 4.83098 11.4711C3.9305 10.4291 2.77627 9.63716 1.48 9.172L1 9L1.48 8.828C2.77627 8.36284 3.9305 7.57092 4.83098 6.52889C5.73146 5.48686 6.34768 4.23001 6.62 2.88L7 1ZM13 29L13.46 31.552C13.5794 32.2177 13.8657 32.8422 14.2921 33.3672C14.7185 33.8922 15.271 34.3005 15.898 34.554L17 35L15.898 35.446C15.2709 35.699 14.7181 36.1069 14.2914 36.6316C13.8647 37.1562 13.5779 37.7805 13.458 38.446L13 41L12.54 38.448C12.4206 37.7823 12.1343 37.1578 11.7079 36.6328C11.2815 36.1078 10.729 35.6995 10.102 35.446L9 35L10.102 34.554C10.7291 34.301 11.2819 33.8931 11.7086 33.3684C12.1353 32.8438 12.4221 32.2195 12.542 31.554L13 29ZM29 3L30.112 8.308C30.6787 11.0142 31.9371 13.5273 33.7643 15.6023C35.5915 17.6774 37.9253 19.2435 40.538 20.148L43 21L40.538 21.852C37.9253 22.7565 35.5915 24.3226 33.7643 26.3977C31.9371 28.4727 30.6787 30.9858 30.112 33.692L29 39L27.888 33.692C27.3213 30.9858 26.0629 28.4727 24.2357 26.3977C22.4085 24.3226 20.0747 22.7565 17.462 21.852L15 21L17.462 20.148C20.0747 19.2435 22.4085 17.6774 24.2357 15.6023C26.0629 13.5273 27.3213 11.0142 27.888 8.308L29 3Z" stroke="#F8F8F8" stroke-width="2" stroke-linecap="round" stroke-linejoin="round"/>
</svg>
