<svg width="44" height="44" viewBox="0 0 44 44" fill="none" xmlns="http://www.w3.org/2000/svg">
<path d="M38.3333 43H10.3333C7.85798 43 5.48401 42.0167 3.73367 40.2663C1.98333 38.516 1 36.142 1 33.6667V5.66667C1 4.42899 1.49167 3.242 2.36683 2.36683C3.242 1.49167 4.42899 1 5.66667 1H29C30.2377 1 31.4247 1.49167 32.2998 2.36683C33.175 3.242 33.6667 4.42899 33.6667 5.66667V36C33.6667 39.8663 34.467 43 38.3333 43Z" stroke="#F8F8F8" stroke-width="2" stroke-linecap="round" stroke-linejoin="round"/>
<path d="M43.0003 17.3334C43.0003 16.0957 42.5087 14.9087 41.6335 14.0335C40.7583 13.1584 39.5713 12.6667 38.3337 12.6667H33.667V37.1667C33.667 40.3867 35.1137 43 38.3337 43C41.5537 43 43.0003 40.3867 43.0003 37.1667V17.3334Z" stroke="#F8F8F8" stroke-width="2" stroke-linecap="round" stroke-linejoin="round"/>
<path d="M24.333 19.6666H10.333M24.333 10.3333H10.333M17.333 29H10.333" stroke="#F8F8F8" stroke-width="2" stroke-linecap="round"/>
</svg>
